<svg xmlns="http://www.w3.org/2000/svg" width="184.612" height="32.288" viewBox="0 0 184.612 32.288">
  <g id="ikea" transform="translate(0.089)">
    <path id="Path_74277" data-name="Path 74277" d="M21.309,32.288c.572,0,.813-.226.5-.572a10.454,10.454,0,0,1-.648-4.081V4.668A10.454,10.454,0,0,1,21.806.587c.316-.346.075-.587-.5-.587H.542c-.572,0-.8.241-.5.587A10.388,10.388,0,0,1,.692,4.668V27.619A10.454,10.454,0,0,1,.045,31.7c-.3.346-.075.572.5.572H21.309Z" transform="translate(0)" fill="#fff"/>
    <path id="Path_74278" data-name="Path 74278" d="M41.8,11.521l7.56-10.256c.3-.3.151-.738.151-.919,0-.2,0-.346.151-.346h20.5c.271,0,.151.2.045.346L61.767,12.138a1.073,1.073,0,0,0,.075,1.461l11.6,18.327c.12.151.226.346-.045.346H48.364c-.151,0-.151-.151-.151-.346s.392-1.852.075-2.154l-6.476-9.909V27.6a10.454,10.454,0,0,0,.648,4.081c.3.346.075.572-.5.572H21.814c-.572,0-.813-.226-.5-.572a10.454,10.454,0,0,0,.648-4.081V4.668A10.454,10.454,0,0,0,21.317.587c-.3-.346-.075-.587.5-.587h20.15c.572,0,.813.226.5.572a10.454,10.454,0,0,0-.648,4.081L41.8,11.521Z" transform="translate(10.759)" fill="#fff"/>
    <path id="Path_74279" data-name="Path 74279" d="M80.214,20.3a.533.533,0,0,1,.572-.572h7.966c.828,0,3.78-.105,4.036.151s.572.09.572-.392V11.746c0-.482-.316-.648-.572-.392s-3.223.151-4.036.151H80.786a.54.54,0,0,1-.572-.572V9.367a.533.533,0,0,1,.572-.572h11.46a10.221,10.221,0,0,1,4.036.648c.346.3.572.075.572-.5V0H60.772c-.572,0-.8.286-.5.632a10.221,10.221,0,0,1,.648,4.036v22.71a10.221,10.221,0,0,1-.648,4.036c-.3.346-.075.572.5.572H96.854v-9.5c0-.572-.226-.8-.572-.5a10.221,10.221,0,0,1-4.036.648H80.786a.54.54,0,0,1-.572-.572V20.3Z" transform="translate(30.473)" fill="#fff"/>
    <path id="Path_74280" data-name="Path 74280" d="M139.981,31.961S127.993,3.468,127.828,3a2.941,2.941,0,0,1-.045-2.018c.3-.738.045-.9-.467-.9H99.245c-.512,0-.768.166-.467.9A2.851,2.851,0,0,1,98.733,3c-.166.467-10.783,28.959-10.783,28.959h17.243c.407,0,.5-.2.361-.467a2.067,2.067,0,0,1,.06-1.4l.919-3.072a1.274,1.274,0,0,1,1.461-.994h7.59a1.266,1.266,0,0,1,1.461.994l.919,3.072a2.066,2.066,0,0,1,.06,1.4c-.136.286-.045.467.361.467h21.6ZM109.395,19.733c-.271-.015-.3-.3-.226-.5l1.867-4.427c.075-.136.12-.256.286-.256s.211.136.286.256l1.867,4.427c.075.2.045.467-.226.5Z" transform="translate(44.543 0.04)" fill="#fff"/>
  </g>
</svg>
