<svg id="Group_2148" data-name="Group 2148" xmlns="http://www.w3.org/2000/svg" width="167.468" height="48.228" viewBox="0 0 167.468 48.228">
  <path id="Path_18146" data-name="Path 18146" d="M355.985,576.137a43.716,43.716,0,0,0,12.474-2.336l-2.272,9.772a83.6,83.6,0,0,1-16.431,1.774c-19.663.1-28.126-10.007-28.174-20.5-.04-14.045,15.056-28.053,39.365-27.723a48.688,48.688,0,0,1,13.369,2.077L371.1,550.735h-1.634c-2-2.632-5.058-4.614-11.088-4.614-12.3,0-19.934,6.74-19.9,15.741.03,8.124,7.031,14.329,17.512,14.279" transform="translate(-212.408 -537.12)" fill="#fff"/>
  <path id="Path_18147" data-name="Path 18147" d="M263.022,537.818l-.752,3.056a3.708,3.708,0,0,1,3.223,5.138l-10.6,38.538,21.193.029.792-3.316s-3.956-.936-2.927-4.605c.078-.321,3.1-11.427,3.1-11.427l9.728-.029c4.827.029,6.416,2.538,6.416,2.538l2.824-11.44H279.664l2.426-8.99,14.221-.01c2.608,0,4.453,1.746,4.453,3.037h1.6l3.134-12.518h-42.48" transform="translate(-190.523 -537.348)" fill="#fff"/>
  <path id="Path_18148" data-name="Path 18148" d="M215.523,577.654c-1.26-1.331-12.173-18.333-12.173-18.333l19.942-15.967c3.366-2.809,5.742-2.49,5.742-2.49l.788-3.075-24.8.019-.778,3.056c1.693.1,4.054,1.6,2.116,3.4-.241.222-19.923,15.265-19.923,15.265l4.246-15.364a4.9,4.9,0,0,1,4.049-3.3l.778-3.066-23.673.011-.767,3.056c1.132.279,4.364.906,3.253,5.157-7.913,28.549-7,25.725-7.518,27.289-2.166,8.233-5.653,7.825-6.913,7.913l-.818,3.316h24.761l.837-3.337s-3.941-.788-3.185-3.635c.739-2.809,3.857-14.045,3.857-14.045a176.17,176.17,0,0,0,10.461,14.849c5.175,7.126,10.692,6.2,25.336,6.2l.818-3.316c-3.124.021-5.174-2.269-6.431-3.6" transform="translate(-159.075 -537.337)" fill="#fff"/>
  <path id="Path_18149" data-name="Path 18149" d="M402.578,538.024a1.911,1.911,0,0,0,0,2.677,1.8,1.8,0,0,0,1.348.592,1.844,1.844,0,0,0,1.363-.592,1.93,1.93,0,0,0-1.363-3.269,1.885,1.885,0,0,0-1.348.591m2.923,2.9a2.133,2.133,0,0,1-1.574.655,2.218,2.218,0,0,1,0-4.425,2.162,2.162,0,0,1,1.574.646,2.132,2.132,0,0,1,.645,1.57,2.1,2.1,0,0,1-.645,1.555m-1.162-2.4a1.09,1.09,0,0,0-.511-.078h-.364v.866h.384a.886.886,0,0,0,.4-.059.352.352,0,0,0,.251-.365.374.374,0,0,0-.163-.363m-.452-.385a1.787,1.787,0,0,1,.664.095.574.574,0,0,1,.374.6.492.492,0,0,1-.241.477.71.71,0,0,1-.355.127.56.56,0,0,1,.414.236.709.709,0,0,1,.148.37v.192a.9.9,0,0,0,.01.172c0,.078.009.124.009.148l.019.01h-.4l-.01-.01v-.029l-.009-.1v-.177a.637.637,0,0,0-.232-.576,1.106,1.106,0,0,0-.472-.074h-.334v.97h-.433v-2.432Z" transform="translate(-238.678 -537.133)" fill="#fff" fill-rule="evenodd"/>
</svg>
